<?xml version="1.0" encoding="UTF-8" standalone="no"?>
<!-- Created with Inkscape (http://www.inkscape.org/) -->

<svg
   xmlns:dc="http://purl.org/dc/elements/1.1/"
   xmlns:cc="http://creativecommons.org/ns#"
   xmlns:rdf="http://www.w3.org/1999/02/22-rdf-syntax-ns#"
   xmlns:svg="http://www.w3.org/2000/svg"
   xmlns="http://www.w3.org/2000/svg"
   xmlns:sodipodi="http://sodipodi.sourceforge.net/DTD/sodipodi-0.dtd"
   xmlns:inkscape="http://www.inkscape.org/namespaces/inkscape"
   id="svg2"
   version="1.1"
   inkscape:version="0.91 r13725"
   xml:space="preserve"
   width="359.78876"
   height="216.37875"
   viewBox="0 0 359.78876 216.37875"
   sodipodi:docname="logo.svg"><metadata
     id="metadata8"><rdf:RDF><cc:Work
         rdf:about=""><dc:format>image/svg+xml</dc:format><dc:type
           rdf:resource="http://purl.org/dc/dcmitype/StillImage" /><dc:title></dc:title></cc:Work></rdf:RDF></metadata><defs
     id="defs6"><clipPath
       clipPathUnits="userSpaceOnUse"
       id="clipPath16"><path
         d="m 0,173.103 287.831,0 L 287.831,0 0,0 0,173.103 Z"
         id="path18"
         inkscape:connector-curvature="0" /></clipPath></defs><sodipodi:namedview
     pagecolor="#ffffff"
     bordercolor="#666666"
     borderopacity="1"
     objecttolerance="10"
     gridtolerance="10"
     guidetolerance="10"
     inkscape:pageopacity="0"
     inkscape:pageshadow="2"
     inkscape:window-width="1235"
     inkscape:window-height="603"
     id="namedview4"
     showgrid="false"
     inkscape:zoom="1.0906801"
     inkscape:cx="179.89438"
     inkscape:cy="108.18938"
     inkscape:window-x="0"
     inkscape:window-y="0"
     inkscape:window-maximized="0"
     inkscape:current-layer="g10" /><g
     id="g10"
     inkscape:groupmode="layer"
     inkscape:label="Förderverein Pfarrein St_Martin_Logo-RZ"
     transform="matrix(1.25,0,0,-1.25,0,216.37875)"><g
       id="g12"><g
         id="g14"
         clip-path="url(#clipPath16)"><g
           id="g20"
           transform="translate(163.248,95.9429)"><path
             d="m 0,0 c -21.999,-2.493 -25.426,17.156 -15.891,28.172 5.351,6.183 15.497,6.998 15.497,6.998 0,0 1.165,1.138 1.848,1.622 0.683,0.485 2.428,1.516 2.428,1.516 l -0.84,-3.377 c 0,0 2.876,-2.043 6.081,-4.847 3.205,-2.803 6.847,-6.973 6.859,-7.894 0.012,-0.92 -0.806,-1.841 -1.381,-2.306 -0.577,-0.465 -1.038,-0.652 -1.584,-0.7 -0.544,-0.05 -2.44,0.871 -3.538,1.391 -1.098,0.519 -3.264,1.898 -3.264,1.898 0,0 -3.043,-0.508 -4.585,-0.205 -3.794,0.743 -5.814,2.976 -7.364,7.013 0,0 -5.329,-2.208 -8.931,-8.751 C -17.458,15.458 -20.494,0.167 0,0"
             style="fill:#cd5523;fill-opacity:1;fill-rule:nonzero;stroke:none"
             id="path22"
             inkscape:connector-curvature="0" /></g><g
           id="g24"
           transform="translate(175.7393,76.3096)"><path
             d="M 0,0 C 0.048,0.122 5.662,9.313 4.713,15.944 4.272,19.038 2.995,23.898 2.2,25.908 -5.708,17.653 -16.601,11.372 -28.589,13.396 c -16.793,2.834 -13.156,17.285 -12.353,20.67 -2.455,-1.333 -5.722,-3.656 -8.549,-8.542 -2.553,-4.409 -3.947,-10.677 -3.914,-12.793 0.822,0.017 3.855,-0.087 6.374,-0.198 4.452,-0.197 6.76,0.233 6.784,0.242 0.601,0.237 1.105,-0.067 0.509,-0.31 -0.112,-0.048 -2.827,-1.131 -7.957,-0.905 -4.106,0.18 -6.118,0.023 -6.39,0.18 -0.281,0.157 -0.415,0.428 -0.439,0.721 -0.026,0.313 -0.606,7.734 2.94,13.858 4.726,8.169 12.476,10.943 12.802,11.056 0.418,0.146 0.88,0.085 1.198,-0.161 0.316,-0.244 0.436,-0.63 0.308,-0.998 -0.034,-0.094 -3.36,-9.612 0.79,-15.636 6.644,-9.647 24.782,-6.226 34.762,2.446 5.125,4.454 3.606,4.43 4.464,4.626 3.39,0.773 4.364,-4.056 4.663,-9.129 C 8.011,8.319 1.008,-0.564 0.706,-0.966 0.529,-1.202 -1.087,-2.735 0,0"
             style="fill:#cd5523;fill-opacity:1;fill-rule:nonzero;stroke:none"
             id="path26"
             inkscape:connector-curvature="0" /></g><g
           id="g28"
           transform="translate(140.4404,127.1719)"><path
             d="m 0,0 c 0,0 -5.125,0.798 -6.691,-3.464 -1.692,-4.602 5.685,-8.741 8.682,-3.826 2.128,3.488 -2.34,5.455 -2.34,5.455 0,0 3.302,-2.451 0.781,-4.928 -1.201,-1.182 -3.192,-1.102 -4.405,-0.071 -0.58,0.494 -1.025,1.205 -1.034,2.104 C -5.042,-0.583 0,0 0,0"
             style="fill:#cd5523;fill-opacity:1;fill-rule:nonzero;stroke:none"
             id="path30"
             inkscape:connector-curvature="0" /></g><g
           id="g32"
           transform="translate(176.8955,113.1138)"><path
             d="m 0,0 c 0,0 4.163,-1.18 3.502,-4.9 -0.713,-4.017 -7.985,-4.547 -8.112,0.156 -0.092,3.337 4.083,3.255 4.083,3.255 0,0 -3.513,-0.682 -2.696,-3.403 0.389,-1.297 1.907,-1.927 3.253,-1.579 0.644,0.167 1.283,0.543 1.673,1.211 C 3.51,-2.18 0,0 0,0"
             style="fill:#cd5523;fill-opacity:1;fill-rule:nonzero;stroke:none"
             id="path34"
             inkscape:connector-curvature="0" /></g><g
           id="g36"
           transform="translate(110.8799,80.8608)"><path
             d="m 0,0 1.163,1.252 -0.006,15.411 -1.509,0.847 2.838,2.133 1.337,1.563 c 0,0 -5.04,1.471 -5.04,6.325 0,6.015 6.314,7.007 6.314,7.007 l 0.091,10.001 c 0,0 -3.09,1.246 -2.735,4.23 0.406,3.427 4.217,3.752 4.217,3.752 l -0.174,0.129 0.025,5.76 -0.668,0.585 -0.021,0.509 1.597,0.621 c 0,0 -0.999,0.591 -1.155,1.943 -0.155,1.352 1.236,2.255 1.895,2.757 0.659,0.501 0.694,2.06 0.694,2.06 l 1.991,0 c 0,0 -0.036,-1.559 -0.695,-2.06 C 9.5,64.323 8.109,63.42 8.265,62.068 8.42,60.716 9.419,60.125 9.419,60.125 L 7.822,59.504 7.843,58.995 8.511,58.41 8.486,52.65 8.661,52.521 c 0,0 -3.81,-0.325 -4.218,-3.752 -0.354,-2.984 2.736,-4.23 2.736,-4.23 L 7.088,34.538 c 0,0 -6.315,-0.992 -6.315,-7.007 0,-4.854 5.04,-6.325 5.04,-6.325 L 4.477,19.643 1.64,17.51 3.147,16.663 3.153,1.252 1.99,0 0,0 Z"
             style="fill:#303131;fill-opacity:1;fill-rule:nonzero;stroke:none"
             id="path38"
             inkscape:connector-curvature="0" /></g><g
           id="g40"
           transform="translate(171.1484,93.4175)"><path
             d="M 0,0 0,-12.347"
             style="fill:none;stroke:#cd5523;stroke-width:0.98400003;stroke-linecap:butt;stroke-linejoin:miter;stroke-miterlimit:10;stroke-dasharray:none;stroke-opacity:1"
             id="path42"
             inkscape:connector-curvature="0" /></g><g
           id="g44"
           transform="translate(149.6045,115.4258)"><path
             d="m 0,0 15.898,0 5.646,-12.249 0,-4.274"
             style="fill:none;stroke:#cd5523;stroke-width:0.98400003;stroke-linecap:butt;stroke-linejoin:miter;stroke-miterlimit:10;stroke-dasharray:none;stroke-opacity:1"
             id="path46"
             inkscape:connector-curvature="0" /></g><g
           id="g48"
           transform="translate(132.0371,115.4258)"><path
             d="M 0,0 9.2,0"
             style="fill:none;stroke:#cd5523;stroke-width:0.98400003;stroke-linecap:butt;stroke-linejoin:miter;stroke-miterlimit:10;stroke-dasharray:none;stroke-opacity:1"
             id="path50"
             inkscape:connector-curvature="0" /></g><g
           id="g52"
           transform="translate(125.6484,115.2583)"><path
             d="m 0,0 -0.091,10.002 c 0,0 3.091,1.246 2.736,4.23 -0.408,3.426 -4.218,3.752 -4.218,3.752 l 0.175,0.129 -0.025,5.76 0.668,0.585 0.021,0.508 -1.597,0.622 c 0,0 0.999,0.59 1.154,1.942 0.156,1.352 -1.235,2.256 -1.894,2.758 -0.659,0.501 -0.695,2.2 -0.695,2.2"
             style="fill:none;stroke:#303131;stroke-width:0.523;stroke-linecap:butt;stroke-linejoin:miter;stroke-miterlimit:10;stroke-dasharray:none;stroke-opacity:1"
             id="path54"
             inkscape:connector-curvature="0" /></g><g
           id="g56"
           transform="translate(73.3594,79.2144)"><path
             d="m 0,0 0,-1.906 -6.158,0 0,-3.009 5.849,0 0,-1.98 -5.877,0 0,-5.057 -2.369,0 L -8.555,0 0,0 Z"
             style="fill:#cd5523;fill-opacity:1;fill-rule:nonzero;stroke:none"
             id="path58"
             inkscape:connector-curvature="0" /></g><path
           d="m 85.838,80.802 -1.959,0 0,1.588 1.959,0 0,-1.588 z m -3.098,0 -1.957,0 0,1.588 1.957,0 0,-1.588 z m 0.621,-11.7 c 2.623,0 3.936,1.39 3.936,4.17 0,2.736 -1.313,4.103 -3.936,4.103 -2.691,0 -4.037,-1.367 -4.037,-4.103 0,-2.78 1.346,-4.17 4.037,-4.17 m -6.541,4.12 c 0,4.05 2.18,6.076 6.541,6.076 4.293,0 6.44,-2.026 6.44,-6.076 0,-4.029 -2.147,-6.043 -6.44,-6.043 -4.168,0 -6.347,2.014 -6.541,6.043"
           style="fill:#cd5523;fill-opacity:1;fill-rule:nonzero;stroke:none"
           id="path60"
           inkscape:connector-curvature="0" /><g
           id="g62"
           transform="translate(93.9434,67.2793)"><path
             d="m 0,0 0,11.935 5.922,0 c 2.66,0 3.99,-1.067 3.99,-3.201 0,-1.443 -1.035,-2.638 -3.105,-3.586 l 4.127,-5.165 -3.043,0 -3.963,5.207 0,1.012 c 2.306,0.361 3.461,1.183 3.461,2.465 0,0.88 -0.541,1.321 -1.621,1.321 l -3.307,0 L 2.461,0 0,0 Z"
             style="fill:#cd5523;fill-opacity:1;fill-rule:nonzero;stroke:none"
             id="path64"
             inkscape:connector-curvature="0" /></g><g
           id="g66"
           transform="translate(112.9824,69.1851)"><path
             d="M 0,0 C 2.703,0 4.053,1.459 4.053,4.379 4.053,6.864 2.703,8.107 0,8.107 l -2.688,0 L -2.688,0 0,0 Z m -5.102,-1.922 0,11.951 5.102,0 c 4.313,0 6.469,-1.883 6.469,-5.65 C 6.469,0.178 4.313,-1.922 0,-1.922 l -5.102,0 z"
             style="fill:#cd5523;fill-opacity:1;fill-rule:nonzero;stroke:none"
             id="path68"
             inkscape:connector-curvature="0" /></g><g
           id="g70"
           transform="translate(132.2852,79.2144)"><path
             d="m 0,0 0,-1.906 -6.523,0 0,-3.009 6.212,0 0,-1.98 -6.24,0 0,-3.134 6.678,0 0,-1.923 -9.047,0 L -8.92,0 0,0 Z"
             style="fill:#cd5523;fill-opacity:1;fill-rule:nonzero;stroke:none"
             id="path72"
             inkscape:connector-curvature="0" /></g><g
           id="g74"
           transform="translate(136.5098,67.2793)"><path
             d="m 0,0 0,11.935 5.922,0 c 2.66,0 3.99,-1.067 3.99,-3.201 0,-1.443 -1.037,-2.638 -3.107,-3.586 l 4.127,-5.165 -3.043,0 -3.963,5.207 0,1.012 c 2.308,0.361 3.463,1.183 3.463,2.465 0,0.88 -0.541,1.321 -1.623,1.321 l -3.307,0 L 2.459,0 0,0 Z"
             style="fill:#cd5523;fill-opacity:1;fill-rule:nonzero;stroke:none"
             id="path76"
             inkscape:connector-curvature="0" /></g><g
           id="g78"
           transform="translate(162.8535,79.2144)"><path
             d="m 0,0 -5.711,-11.952 -2.598,0 L -13.773,0 -10.904,0 -6.869,-9.152 -2.842,0 0,0 Z"
             style="fill:#cd5523;fill-opacity:1;fill-rule:nonzero;stroke:none"
             id="path80"
             inkscape:connector-curvature="0" /></g><g
           id="g82"
           transform="translate(175.0039,79.2144)"><path
             d="m 0,0 0,-1.906 -6.521,0 0,-3.009 6.212,0 0,-1.98 -6.24,0 0,-3.134 6.678,0 0,-1.923 -9.047,0 L -8.918,0 0,0 Z"
             style="fill:#cd5523;fill-opacity:1;fill-rule:nonzero;stroke:none"
             id="path84"
             inkscape:connector-curvature="0" /></g><g
           id="g86"
           transform="translate(179.2285,67.2793)"><path
             d="m 0,0 0,11.935 5.922,0 c 2.66,0 3.99,-1.067 3.99,-3.201 0,-1.443 -1.035,-2.638 -3.105,-3.586 l 4.127,-5.165 -3.043,0 -3.963,5.207 0,1.012 c 2.306,0.361 3.461,1.183 3.461,2.465 0,0.88 -0.541,1.321 -1.621,1.321 l -3.307,0 L 2.461,0 0,0 Z"
             style="fill:#cd5523;fill-opacity:1;fill-rule:nonzero;stroke:none"
             id="path88"
             inkscape:connector-curvature="0" /></g><g
           id="g90"
           transform="translate(202.084,79.2144)"><path
             d="m 0,0 0,-1.906 -6.521,0 0,-3.009 6.212,0 0,-1.98 -6.24,0 0,-3.134 6.678,0 0,-1.923 -9.047,0 L -8.918,0 0,0 Z"
             style="fill:#cd5523;fill-opacity:1;fill-rule:nonzero;stroke:none"
             id="path92"
             inkscape:connector-curvature="0" /></g><path
           d="m 208.723,67.263 -2.414,0 0,11.952 2.414,0 0,-11.952 z"
           style="fill:#cd5523;fill-opacity:1;fill-rule:nonzero;stroke:none"
           id="path94"
           inkscape:connector-curvature="0" /><g
           id="g96"
           transform="translate(213.3223,67.2627)"><path
             d="m 0,0 0,11.952 2.414,0 6.877,-8.709 0,8.709 2.324,0 L 11.615,0 9.201,0 2.322,8.893 2.322,0 0,0 Z"
             style="fill:#cd5523;fill-opacity:1;fill-rule:nonzero;stroke:none"
             id="path98"
             inkscape:connector-curvature="0" /></g><g
           id="g100"
           transform="translate(23.1641,45.2627)"><path
             d="m 0,0 0,11.87 5.313,0 c 2.423,0 3.634,-1.115 3.634,-3.345 0,-2.419 -1.656,-3.882 -4.972,-4.391 L 3.66,6.093 c 1.992,0.36 2.988,1.148 2.988,2.365 0,0.985 -0.492,1.478 -1.478,1.478 l -2.971,0 L 2.199,0 0,0 Z"
             style="fill:#303131;fill-opacity:1;fill-rule:nonzero;stroke:none"
             id="path102"
             inkscape:connector-curvature="0" /></g><g
           id="g104"
           transform="translate(42.209,57.1328)"><path
             d="m 0,0 0,-1.893 -5.611,0 0,-2.988 5.328,0 0,-1.967 -5.354,0 0,-5.022 -2.158,0 0,11.87 L 0,0 Z"
             style="fill:#303131;fill-opacity:1;fill-rule:nonzero;stroke:none"
             id="path106"
             inkscape:connector-curvature="0" /></g><g
           id="g108"
           transform="translate(44.9004,45.2627)"><path
             d="m 0,0 -2.258,0 5.039,11.87 2.365,0 L 10.293,0 7.928,0 6.574,3.237 l -3.941,0 0.754,1.909 2.39,0 L 3.91,9.604 0,0 Z"
             style="fill:#303131;fill-opacity:1;fill-rule:nonzero;stroke:none"
             id="path110"
             inkscape:connector-curvature="0" /></g><g
           id="g112"
           transform="translate(57.498,45.2793)"><path
             d="m 0,0 0,11.854 5.395,0 c 2.423,0 3.636,-1.06 3.636,-3.18 0,-1.433 -0.943,-2.62 -2.832,-3.561 l 3.762,-5.13 -2.773,0 -3.612,5.172 0,1.004 C 5.68,6.519 6.73,7.335 6.73,8.608 6.73,9.482 6.238,9.919 5.254,9.919 L 2.24,9.919 2.24,0 0,0 Z"
             style="fill:#303131;fill-opacity:1;fill-rule:nonzero;stroke:none"
             id="path114"
             inkscape:connector-curvature="0" /></g><g
           id="g116"
           transform="translate(69.3457,45.2793)"><path
             d="m 0,0 0,11.854 5.396,0 c 2.424,0 3.635,-1.06 3.635,-3.18 0,-1.433 -0.943,-2.62 -2.83,-3.561 l 3.76,-5.13 -2.772,0 -3.611,5.172 0,1.004 c 2.104,0.36 3.154,1.176 3.154,2.449 0,0.874 -0.492,1.311 -1.478,1.311 l -3.012,0 L 2.242,0 0,0 Z"
             style="fill:#303131;fill-opacity:1;fill-rule:nonzero;stroke:none"
             id="path118"
             inkscape:connector-curvature="0" /></g><g
           id="g120"
           transform="translate(89.7852,57.1328)"><path
             d="m 0,0 0,-1.909 -6.316,-8.052 6.316,0 0,-1.909 -8.799,0 0,1.909 6.592,8.052 -6.426,0 0,1.909 L 0,0 Z"
             style="fill:#303131;fill-opacity:1;fill-rule:nonzero;stroke:none"
             id="path122"
             inkscape:connector-curvature="0" /></g><g
           id="g124"
           transform="translate(100.5469,57.1328)"><path
             d="m 0,0 0,-1.893 -5.943,0 0,-2.988 5.66,0 0,-1.967 -5.686,0 0,-3.113 6.084,0 0,-1.909 -8.242,0 0,11.87 L 0,0 Z"
             style="fill:#303131;fill-opacity:1;fill-rule:nonzero;stroke:none"
             id="path126"
             inkscape:connector-curvature="0" /></g><g
           id="g128"
           transform="translate(103.5469,45.2627)"><path
             d="m 0,0 0,11.87 2.199,0 6.268,-8.649 0,8.649 2.115,0 L 10.582,0 8.383,0 2.115,8.832 2.115,0 0,0 Z"
             style="fill:#303131;fill-opacity:1;fill-rule:nonzero;stroke:none"
             id="path130"
             inkscape:connector-curvature="0" /></g><g
           id="g132"
           transform="translate(125.2305,57.1328)"><path
             d="m 0,0 0,-1.909 -3.402,0 0,-9.961 -2.2,0 0,9.961 -3.404,0 0,1.909 L 0,0 Z"
             style="fill:#303131;fill-opacity:1;fill-rule:nonzero;stroke:none"
             id="path134"
             inkscape:connector-curvature="0" /></g><g
           id="g136"
           transform="translate(127.3262,45.2793)"><path
             d="m 0,0 0,11.854 5.396,0 c 2.424,0 3.635,-1.06 3.635,-3.18 0,-1.433 -0.943,-2.62 -2.83,-3.561 l 3.76,-5.13 -2.772,0 -3.611,5.172 0,1.004 c 2.104,0.36 3.154,1.176 3.154,2.449 0,0.874 -0.492,1.311 -1.478,1.311 l -3.012,0 L 2.242,0 0,0 Z"
             style="fill:#303131;fill-opacity:1;fill-rule:nonzero;stroke:none"
             id="path138"
             inkscape:connector-curvature="0" /></g><g
           id="g140"
           transform="translate(139.1758,49.9277)"><path
             d="m 0,0 0,7.205 2.199,0 0,-7.205 c 0,-1.893 0.969,-2.839 2.905,-2.839 1.937,0 2.906,0.946 2.906,2.839 l 0,7.205 2.199,0 0,-7.205 c 0,-3.166 -1.701,-4.748 -5.105,-4.748 C 1.701,-4.748 0,-3.166 0,0"
             style="fill:#303131;fill-opacity:1;fill-rule:nonzero;stroke:none"
             id="path142"
             inkscape:connector-curvature="0" /></g><g
           id="g144"
           transform="translate(152.7246,45.2627)"><path
             d="m 0,0 0,11.87 2.283,0 4.026,-9.006 3.943,9.006 2.199,0 0,-11.87 -2.033,0 0,8.268 L 7.197,0 5.32,0 2.033,8.268 2.033,0 0,0 Z"
             style="fill:#303131;fill-opacity:1;fill-rule:nonzero;stroke:none"
             id="path146"
             inkscape:connector-curvature="0" /></g><g
           id="g148"
           transform="translate(172.8945,45.7607)"><path
             d="M 0,0 0,1.992 C 1.189,1.549 2.535,1.328 4.033,1.328 c 1.822,0 2.733,0.609 2.733,1.826 0,0.886 -0.559,1.328 -1.678,1.328 l -1.859,0 c -2.43,0 -3.645,1.107 -3.645,3.321 0,2.435 1.73,3.652 5.189,3.652 1.329,0 2.586,-0.194 3.776,-0.581 l 0,-1.992 C 7.359,9.325 6.102,9.546 4.773,9.546 2.781,9.546 1.785,8.965 1.785,7.803 1.785,6.917 2.266,6.475 3.229,6.475 l 1.859,0 c 2.584,0 3.877,-1.107 3.877,-3.321 0,-2.49 -1.645,-3.735 -4.932,-3.735 C 2.535,-0.581 1.189,-0.387 0,0"
             style="fill:#303131;fill-opacity:1;fill-rule:nonzero;stroke:none"
             id="path150"
             inkscape:connector-curvature="0" /></g><g
           id="g152"
           transform="translate(192.3379,57.1328)"><path
             d="m 0,0 0,-1.909 -3.402,0 0,-9.961 -2.2,0 0,9.961 -3.404,0 0,1.909 L 0,0 Z"
             style="fill:#303131;fill-opacity:1;fill-rule:nonzero;stroke:none"
             id="path154"
             inkscape:connector-curvature="0" /></g><path
           d="m 196.217,45.263 -2.199,0 0,2.034 2.199,0 0,-2.034 z"
           style="fill:#303131;fill-opacity:1;fill-rule:nonzero;stroke:none"
           id="path156"
           inkscape:connector-curvature="0" /><g
           id="g158"
           transform="translate(199.1426,45.2627)"><path
             d="m 0,0 0,11.87 2.283,0 4.026,-9.006 3.943,9.006 2.199,0 0,-11.87 -2.033,0 0,8.268 L 7.197,0 5.32,0 2.033,8.268 2.033,0 0,0 Z"
             style="fill:#303131;fill-opacity:1;fill-rule:nonzero;stroke:none"
             id="path160"
             inkscape:connector-curvature="0" /></g><g
           id="g162"
           transform="translate(216.1543,45.2627)"><path
             d="m 0,0 -2.258,0 5.039,11.87 2.365,0 L 10.293,0 7.928,0 6.574,3.237 l -3.941,0 0.754,1.909 2.39,0 L 3.91,9.604 0,0 Z"
             style="fill:#303131;fill-opacity:1;fill-rule:nonzero;stroke:none"
             id="path164"
             inkscape:connector-curvature="0" /></g><g
           id="g166"
           transform="translate(228.75,45.2793)"><path
             d="m 0,0 0,11.854 5.396,0 c 2.424,0 3.635,-1.06 3.635,-3.18 0,-1.433 -0.943,-2.62 -2.83,-3.561 l 3.76,-5.13 -2.772,0 -3.611,5.172 0,1.004 c 2.104,0.36 3.154,1.176 3.154,2.449 0,0.874 -0.492,1.311 -1.478,1.311 l -3.012,0 L 2.242,0 0,0 Z"
             style="fill:#303131;fill-opacity:1;fill-rule:nonzero;stroke:none"
             id="path168"
             inkscape:connector-curvature="0" /></g><g
           id="g170"
           transform="translate(248.3594,57.1328)"><path
             d="m 0,0 0,-1.909 -3.402,0 0,-9.961 -2.2,0 0,9.961 -3.404,0 0,1.909 L 0,0 Z"
             style="fill:#303131;fill-opacity:1;fill-rule:nonzero;stroke:none"
             id="path172"
             inkscape:connector-curvature="0" /></g><path
           d="m 252.654,45.263 -2.199,0 0,11.87 2.199,0 0,-11.87 z"
           style="fill:#303131;fill-opacity:1;fill-rule:nonzero;stroke:none"
           id="path174"
           inkscape:connector-curvature="0" /><g
           id="g176"
           transform="translate(255.9961,45.2627)"><path
             d="m 0,0 0,11.87 2.199,0 6.268,-8.649 0,8.649 2.115,0 L 10.582,0 8.383,0 2.115,8.832 2.115,0 0,0 Z"
             style="fill:#303131;fill-opacity:1;fill-rule:nonzero;stroke:none"
             id="path178"
             inkscape:connector-curvature="0" /></g><g
           id="g180"
           transform="translate(106.8301,29.6729)"><path
             d="m 0,0 c -0.844,-0.319 -1.801,-0.479 -2.871,-0.479 -3.51,0 -5.264,1.698 -5.264,5.093 0,3.213 1.754,4.82 5.264,4.82 1.07,0 2.027,-0.16 2.871,-0.479 L 0,7.314 c -0.844,0.365 -1.756,0.547 -2.734,0.547 -2.348,0 -3.522,-1.082 -3.522,-3.247 0,-2.347 1.174,-3.52 3.522,-3.52 0.978,0 1.89,0.182 2.734,0.547 L 0,0 Z"
             style="fill:#303131;fill-opacity:1;fill-rule:nonzero;stroke:none"
             id="path182"
             inkscape:connector-curvature="0" /></g><g
           id="g184"
           transform="translate(112.9805,30.6299)"><path
             d="M 0,0 C 1.162,0 1.744,0.75 1.744,2.249 1.744,3.712 1.162,4.443 0,4.443 -1.162,4.443 -1.742,3.712 -1.742,2.249 -1.742,0.75 -1.162,0 0,0 m -3.555,2.222 c 0,2.406 1.186,3.609 3.555,3.609 2.371,0 3.555,-1.203 3.555,-3.609 0,-2.402 -1.184,-3.603 -3.555,-3.603 -2.359,0 -3.545,1.201 -3.555,3.603"
             style="fill:#303131;fill-opacity:1;fill-rule:nonzero;stroke:none"
             id="path186"
             inkscape:connector-curvature="0" /></g><g
           id="g188"
           transform="translate(124.5996,29.4678)"><path
             d="m 0,0 c -0.592,-0.137 -1.207,-0.205 -1.846,-0.205 -2.55,0 -3.828,1.242 -3.828,3.726 0,2.301 1.278,3.452 3.828,3.452 0.639,0 1.254,-0.069 1.846,-0.205 L 0,5.332 c -0.592,0.137 -1.162,0.205 -1.709,0.205 -1.436,0 -2.152,-0.672 -2.152,-2.016 0,-1.527 0.716,-2.291 2.152,-2.291 0.547,0 1.117,0.069 1.709,0.206 L 0,0 Z"
             style="fill:#303131;fill-opacity:1;fill-rule:nonzero;stroke:none"
             id="path190"
             inkscape:connector-curvature="0" /></g><g
           id="g192"
           transform="translate(127.1973,29.2627)"><path
             d="m 0,0 0,9.775 1.811,0 0,-3.513 c 0.566,0.611 1.287,0.916 2.168,0.916 1.699,0 2.548,-0.885 2.548,-2.653 l 0,-4.525 -1.81,0 0,4.525 c 0,0.793 -0.395,1.19 -1.184,1.19 C 2.945,5.715 2.371,5.48 1.811,5.011 L 1.811,0 0,0 Z"
             style="fill:#303131;fill-opacity:1;fill-rule:nonzero;stroke:none"
             id="path194"
             inkscape:connector-curvature="0" /></g><g
           id="g196"
           transform="translate(138.3027,33.4736)"><path
             d="m 0,0 3.063,0 0,0.055 c 0,0.993 -0.5,1.49 -1.504,1.49 C 0.602,1.545 0.082,1.03 0,0 m 1.559,2.967 c 2.179,0 3.267,-1.112 3.267,-3.336 0,-0.297 -0.019,-0.592 -0.06,-0.889 l -4.766,0 c 0,-1.012 0.744,-1.517 2.229,-1.517 0.724,0 1.449,0.068 2.173,0.205 l 0,-1.436 C 3.77,-4.143 3,-4.211 2.092,-4.211 c -2.602,0 -3.903,1.224 -3.903,3.671 0,2.338 1.123,3.507 3.37,3.507"
             style="fill:#303131;fill-opacity:1;fill-rule:nonzero;stroke:none"
             id="path198"
             inkscape:connector-curvature="0" /></g><g
           id="g200"
           transform="translate(145.8906,29.2627)"><path
             d="m 0,0 0,7.178 1.4,0 0.213,-1.039 c 0.643,0.693 1.414,1.039 2.317,1.039 0.902,0 1.519,-0.328 1.853,-0.985 0.733,0.657 1.502,0.985 2.303,0.985 1.65,0 2.475,-0.909 2.475,-2.728 l 0,-4.45 -1.811,0 0,4.519 C 8.75,5.316 8.389,5.715 7.67,5.715 7.131,5.715 6.615,5.473 6.117,4.99 l 0,-4.99 -1.81,0 0,4.498 c 0,0.811 -0.334,1.217 -0.998,1.217 -0.53,0 -1.028,-0.242 -1.498,-0.725 L 1.811,0 0,0 Z"
             style="fill:#303131;fill-opacity:1;fill-rule:nonzero;stroke:none"
             id="path202"
             inkscape:connector-curvature="0" /></g><g
           id="g204"
           transform="translate(165.5059,33.4736)"><path
             d="m 0,0 3.063,0 0,0.055 c 0,0.993 -0.5,1.49 -1.504,1.49 C 0.602,1.545 0.082,1.03 0,0 m 1.559,2.967 c 2.179,0 3.267,-1.112 3.267,-3.336 0,-0.297 -0.019,-0.592 -0.06,-0.889 l -4.766,0 c 0,-1.012 0.744,-1.517 2.229,-1.517 0.724,0 1.449,0.068 2.173,0.205 l 0,-1.436 C 3.77,-4.143 3,-4.211 2.092,-4.211 c -2.602,0 -3.903,1.224 -3.903,3.671 0,2.338 1.123,3.507 3.37,3.507"
             style="fill:#303131;fill-opacity:1;fill-rule:nonzero;stroke:none"
             id="path206"
             inkscape:connector-curvature="0" /></g><path
           d="m 174.734,29.263 -1.813,0 0,1.675 1.813,0 0,-1.675 z"
           style="fill:#303131;fill-opacity:1;fill-rule:nonzero;stroke:none"
           id="path208"
           inkscape:connector-curvature="0" /><g
           id="g210"
           transform="translate(187.1523,39.0381)"><path
             d="m 0,0 -4.285,-9.775 -1.949,0 L -10.336,0 -8.182,0 -5.154,-7.485 -2.133,0 0,0 Z"
             style="fill:#303131;fill-opacity:1;fill-rule:nonzero;stroke:none"
             id="path212"
             inkscape:connector-curvature="0" /></g><path
           d="m 191.049,29.263 -1.813,0 0,1.675 1.813,0 0,-1.675 z"
           style="fill:#303131;fill-opacity:1;fill-rule:nonzero;stroke:none"
           id="path214"
           inkscape:connector-curvature="0" /><g
           id="g216"
           transform="translate(171.3555,65.6484)"><path
             d="m 0,0 0,-2.62 -59.131,0 0,2.503"
             style="fill:none;stroke:#cd5523;stroke-width:0.84200001;stroke-linecap:butt;stroke-linejoin:miter;stroke-miterlimit:10;stroke-dasharray:none;stroke-opacity:1"
             id="path218"
             inkscape:connector-curvature="0" /></g></g></g></g></svg>